<mxfile host="app.diagrams.net" modified="2022-12-29T20:12:40.683Z" agent="5.0 (X11; Ubuntu)" etag="FnSdjvw0UXOfsyrCuLnD" version="20.7.4" type="github">
  <diagram id="C5RBs43oDa-KdzZeNtuy" name="Page-1">
    <mxGraphModel dx="3290" dy="1846" grid="1" gridSize="10" guides="1" tooltips="1" connect="1" arrows="1" fold="1" page="1" pageScale="1" pageWidth="827" pageHeight="1169" math="0" shadow="0">
      <root>
        <mxCell id="WIyWlLk6GJQsqaUBKTNV-0" />
        <mxCell id="WIyWlLk6GJQsqaUBKTNV-1" parent="WIyWlLk6GJQsqaUBKTNV-0" />
        <mxCell id="Hp-Pr5FBMq-Tdysuqud3-11" value="&lt;div align=&quot;left&quot;&gt;&lt;br&gt;&lt;/div&gt;" style="text;html=1;align=left;verticalAlign=middle;resizable=0;points=[];autosize=1;strokeColor=none;fillColor=none;" parent="WIyWlLk6GJQsqaUBKTNV-1" vertex="1">
          <mxGeometry x="1330" y="105" width="20" height="30" as="geometry" />
        </mxCell>
        <mxCell id="Hp-Pr5FBMq-Tdysuqud3-12" value="&lt;div align=&quot;left&quot;&gt;&lt;br&gt;&lt;/div&gt;" style="text;html=1;align=left;verticalAlign=middle;resizable=0;points=[];autosize=1;strokeColor=none;fillColor=none;" parent="WIyWlLk6GJQsqaUBKTNV-1" vertex="1">
          <mxGeometry x="1330" y="85" width="20" height="30" as="geometry" />
        </mxCell>
        <mxCell id="Hp-Pr5FBMq-Tdysuqud3-13" value="&lt;div align=&quot;left&quot;&gt;&lt;br&gt;&lt;/div&gt;" style="text;html=1;align=left;verticalAlign=middle;resizable=0;points=[];autosize=1;strokeColor=none;fillColor=none;" parent="WIyWlLk6GJQsqaUBKTNV-1" vertex="1">
          <mxGeometry x="1330" y="125" width="20" height="30" as="geometry" />
        </mxCell>
        <mxCell id="Hp-Pr5FBMq-Tdysuqud3-14" value="&lt;div align=&quot;left&quot;&gt;&lt;br&gt;&lt;/div&gt;" style="text;html=1;align=left;verticalAlign=middle;resizable=0;points=[];autosize=1;strokeColor=none;fillColor=none;" parent="WIyWlLk6GJQsqaUBKTNV-1" vertex="1">
          <mxGeometry x="1330" y="150" width="20" height="30" as="geometry" />
        </mxCell>
        <mxCell id="7G4FsNkI0GNlZ8F1-dTX-0" value="&lt;font style=&quot;font-size: 18px;&quot;&gt;&lt;font style=&quot;font-size: 18px;&quot;&gt;putMarmotInPlace&lt;/font&gt;()&lt;/font&gt;" style="rounded=1;whiteSpace=wrap;html=1;strokeWidth=2;fillWeight=4;hachureGap=8;hachureAngle=45;fillColor=#dae8fc;sketch=1;strokeColor=#6c8ebf;" vertex="1" parent="WIyWlLk6GJQsqaUBKTNV-1">
          <mxGeometry x="740" y="1030" width="200" height="100" as="geometry" />
        </mxCell>
        <mxCell id="7G4FsNkI0GNlZ8F1-dTX-10" value="" style="edgeStyle=orthogonalEdgeStyle;rounded=0;orthogonalLoop=1;jettySize=auto;html=1;fontSize=18;" edge="1" parent="WIyWlLk6GJQsqaUBKTNV-1" source="7G4FsNkI0GNlZ8F1-dTX-1" target="7G4FsNkI0GNlZ8F1-dTX-9">
          <mxGeometry relative="1" as="geometry" />
        </mxCell>
        <mxCell id="7G4FsNkI0GNlZ8F1-dTX-1" value="&lt;font style=&quot;font-size: 18px;&quot;&gt;getSizeOfMarmot()&lt;/font&gt;" style="rounded=1;whiteSpace=wrap;html=1;strokeWidth=2;fillWeight=4;hachureGap=8;hachureAngle=45;fillColor=#dae8fc;sketch=1;strokeColor=#6c8ebf;" vertex="1" parent="WIyWlLk6GJQsqaUBKTNV-1">
          <mxGeometry x="740" y="660" width="200" height="100" as="geometry" />
        </mxCell>
        <mxCell id="7G4FsNkI0GNlZ8F1-dTX-6" value="&lt;blockquote&gt;&lt;div align=&quot;center&quot;&gt;&lt;font style=&quot;font-size: 18px;&quot;&gt;createArrayOfMarmots()&lt;/font&gt;&lt;/div&gt;&lt;div align=&quot;left&quot;&gt;increment number of marmots in array by 2 every successful array&lt;/div&gt;&lt;div align=&quot;left&quot;&gt;&lt;span style=&quot;background-color: initial;&quot;&gt;Random create placement of marmots&lt;/span&gt;&lt;/div&gt;&lt;div align=&quot;left&quot;&gt;&lt;span style=&quot;background-color: initial;&quot;&gt;Generate placement of marmots&lt;/span&gt;&lt;br&gt;&lt;span style=&quot;background-color: initial;&quot;&gt;Array of coordinates&lt;/span&gt;&lt;/div&gt;&lt;/blockquote&gt;" style="rounded=1;whiteSpace=wrap;html=1;strokeWidth=2;fillWeight=4;hachureGap=8;hachureAngle=45;fillColor=#dae8fc;sketch=1;strokeColor=#6c8ebf;align=left;" vertex="1" parent="WIyWlLk6GJQsqaUBKTNV-1">
          <mxGeometry x="1100" y="650" width="390" height="110" as="geometry" />
        </mxCell>
        <mxCell id="7G4FsNkI0GNlZ8F1-dTX-9" value="&lt;font style=&quot;font-size: 18px;&quot;&gt;getWidth()&lt;/font&gt;" style="rounded=1;whiteSpace=wrap;html=1;strokeWidth=2;fillWeight=4;hachureGap=8;hachureAngle=45;fillColor=#dae8fc;sketch=1;strokeColor=#6c8ebf;" vertex="1" parent="WIyWlLk6GJQsqaUBKTNV-1">
          <mxGeometry x="740" y="840" width="200" height="100" as="geometry" />
        </mxCell>
        <mxCell id="7G4FsNkI0GNlZ8F1-dTX-15" value="" style="edgeStyle=orthogonalEdgeStyle;rounded=0;orthogonalLoop=1;jettySize=auto;html=1;fontSize=18;" edge="1" parent="WIyWlLk6GJQsqaUBKTNV-1" source="7G4FsNkI0GNlZ8F1-dTX-13" target="7G4FsNkI0GNlZ8F1-dTX-14">
          <mxGeometry relative="1" as="geometry" />
        </mxCell>
        <mxCell id="7G4FsNkI0GNlZ8F1-dTX-13" value="increaseSuccessfulHits()" style="rounded=1;whiteSpace=wrap;html=1;strokeWidth=2;fillWeight=4;hachureGap=8;hachureAngle=45;fillColor=#dae8fc;sketch=1;fontSize=18;strokeColor=#6c8ebf;" vertex="1" parent="WIyWlLk6GJQsqaUBKTNV-1">
          <mxGeometry x="150" y="170" width="230" height="80" as="geometry" />
        </mxCell>
        <mxCell id="7G4FsNkI0GNlZ8F1-dTX-14" value="#" style="ellipse;whiteSpace=wrap;html=1;fontSize=18;fillColor=#dae8fc;strokeColor=#6c8ebf;rounded=1;strokeWidth=2;fillWeight=4;hachureGap=8;hachureAngle=45;sketch=1;" vertex="1" parent="WIyWlLk6GJQsqaUBKTNV-1">
          <mxGeometry x="225" y="330" width="80" height="80" as="geometry" />
        </mxCell>
        <mxCell id="7G4FsNkI0GNlZ8F1-dTX-18" value="" style="edgeStyle=orthogonalEdgeStyle;rounded=0;orthogonalLoop=1;jettySize=auto;html=1;fontSize=18;" edge="1" parent="WIyWlLk6GJQsqaUBKTNV-1" source="7G4FsNkI0GNlZ8F1-dTX-16" target="7G4FsNkI0GNlZ8F1-dTX-17">
          <mxGeometry relative="1" as="geometry" />
        </mxCell>
        <mxCell id="7G4FsNkI0GNlZ8F1-dTX-16" value="increaseTotalNumberOfMarmotsPlayed()" style="rounded=1;whiteSpace=wrap;html=1;strokeWidth=2;fillWeight=4;hachureGap=8;hachureAngle=45;fillColor=#dae8fc;sketch=1;fontSize=18;strokeColor=#6c8ebf;" vertex="1" parent="WIyWlLk6GJQsqaUBKTNV-1">
          <mxGeometry x="450" y="180" width="360" height="60" as="geometry" />
        </mxCell>
        <mxCell id="7G4FsNkI0GNlZ8F1-dTX-17" value="#" style="ellipse;whiteSpace=wrap;html=1;fontSize=18;fillColor=#dae8fc;strokeColor=#6c8ebf;rounded=1;strokeWidth=2;fillWeight=4;hachureGap=8;hachureAngle=45;sketch=1;" vertex="1" parent="WIyWlLk6GJQsqaUBKTNV-1">
          <mxGeometry x="590" y="330" width="80" height="80" as="geometry" />
        </mxCell>
        <mxCell id="7G4FsNkI0GNlZ8F1-dTX-19" value="out of " style="text;strokeColor=none;fillColor=none;html=1;fontSize=24;fontStyle=1;verticalAlign=middle;align=center;" vertex="1" parent="WIyWlLk6GJQsqaUBKTNV-1">
          <mxGeometry x="400" y="350" width="100" height="40" as="geometry" />
        </mxCell>
        <mxCell id="7G4FsNkI0GNlZ8F1-dTX-20" value="getSVGPath()" style="rounded=1;whiteSpace=wrap;html=1;strokeWidth=2;fillWeight=4;hachureGap=8;hachureAngle=45;fillColor=#dae8fc;sketch=1;fontSize=18;strokeColor=#6c8ebf;" vertex="1" parent="WIyWlLk6GJQsqaUBKTNV-1">
          <mxGeometry x="880" y="460" width="150" height="60" as="geometry" />
        </mxCell>
        <mxCell id="7G4FsNkI0GNlZ8F1-dTX-21" value="&lt;div&gt;getRandomXCoordinateOnSVGPath()&lt;/div&gt;&lt;font style=&quot;font-size: 12px;&quot;&gt;with the x coordinate, get the y coordinate on the SVG path&lt;/font&gt;" style="rounded=1;whiteSpace=wrap;html=1;strokeWidth=2;fillWeight=4;hachureGap=8;hachureAngle=45;fillColor=#dae8fc;sketch=1;fontSize=18;strokeColor=#6c8ebf;" vertex="1" parent="WIyWlLk6GJQsqaUBKTNV-1">
          <mxGeometry x="190" y="660" width="360" height="70" as="geometry" />
        </mxCell>
        <mxCell id="7G4FsNkI0GNlZ8F1-dTX-22" value="&lt;font style=&quot;font-size: 18px;&quot;&gt;getAngleToRotateMamot()&lt;/font&gt;" style="rounded=1;whiteSpace=wrap;html=1;strokeWidth=2;fillWeight=4;hachureGap=8;hachureAngle=45;fillColor=#dae8fc;sketch=1;fontSize=12;strokeColor=#6c8ebf;" vertex="1" parent="WIyWlLk6GJQsqaUBKTNV-1">
          <mxGeometry x="380" y="910" width="260" height="60" as="geometry" />
        </mxCell>
        <mxCell id="7G4FsNkI0GNlZ8F1-dTX-24" style="edgeStyle=orthogonalEdgeStyle;rounded=0;orthogonalLoop=1;jettySize=auto;html=1;entryX=0.5;entryY=0;entryDx=0;entryDy=0;fontSize=18;" edge="1" parent="WIyWlLk6GJQsqaUBKTNV-1" source="7G4FsNkI0GNlZ8F1-dTX-23" target="7G4FsNkI0GNlZ8F1-dTX-13">
          <mxGeometry relative="1" as="geometry" />
        </mxCell>
        <mxCell id="7G4FsNkI0GNlZ8F1-dTX-23" value="&lt;font style=&quot;font-size: 12px;&quot;&gt;click on marmot&lt;/font&gt;" style="rounded=1;whiteSpace=wrap;html=1;strokeWidth=2;fillWeight=4;hachureGap=8;hachureAngle=45;fillColor=#dae8fc;sketch=1;fontSize=18;strokeColor=#6c8ebf;" vertex="1" parent="WIyWlLk6GJQsqaUBKTNV-1">
          <mxGeometry x="207.5" y="95" width="115" height="35" as="geometry" />
        </mxCell>
        <mxCell id="7G4FsNkI0GNlZ8F1-dTX-25" value="random pick of words in negative word array" style="rounded=1;whiteSpace=wrap;html=1;strokeWidth=2;fillWeight=4;hachureGap=8;hachureAngle=45;fillColor=#fff2cc;sketch=1;fontSize=12;strokeColor=#d6b656;" vertex="1" parent="WIyWlLk6GJQsqaUBKTNV-1">
          <mxGeometry x="384" y="430" width="120" height="60" as="geometry" />
        </mxCell>
        <mxCell id="7G4FsNkI0GNlZ8F1-dTX-26" value="If hit then points&lt;br&gt;random pick words in positive word array" style="rounded=1;whiteSpace=wrap;html=1;strokeWidth=2;fillWeight=4;hachureGap=8;hachureAngle=45;fillColor=#fff2cc;sketch=1;fontSize=12;strokeColor=#d6b656;" vertex="1" parent="WIyWlLk6GJQsqaUBKTNV-1">
          <mxGeometry x="535" y="430" width="120" height="60" as="geometry" />
        </mxCell>
        <mxCell id="7G4FsNkI0GNlZ8F1-dTX-27" value="&lt;div align=&quot;left&quot;&gt;Enter name of player&lt;/div&gt;" style="rounded=1;whiteSpace=wrap;html=1;strokeWidth=2;fillWeight=4;hachureGap=8;hachureAngle=45;fillColor=#e1d5e7;sketch=1;fontSize=12;strokeColor=#9673a6;" vertex="1" parent="WIyWlLk6GJQsqaUBKTNV-1">
          <mxGeometry x="1190" y="310" width="120" height="60" as="geometry" />
        </mxCell>
        <mxCell id="7G4FsNkI0GNlZ8F1-dTX-28" value="&lt;div align=&quot;left&quot;&gt;&lt;div align=&quot;left&quot;&gt;Exit button&lt;br&gt;&lt;/div&gt;&lt;/div&gt;" style="rounded=1;whiteSpace=wrap;html=1;strokeWidth=2;fillWeight=4;hachureGap=8;hachureAngle=45;fillColor=#e1d5e7;sketch=1;fontSize=12;strokeColor=#9673a6;" vertex="1" parent="WIyWlLk6GJQsqaUBKTNV-1">
          <mxGeometry x="1380" y="405" width="120" height="65" as="geometry" />
        </mxCell>
        <mxCell id="7G4FsNkI0GNlZ8F1-dTX-29" value="&lt;div align=&quot;center&quot;&gt;Name and score saved to local storage&lt;/div&gt;" style="rounded=1;whiteSpace=wrap;html=1;strokeWidth=2;fillWeight=4;hachureGap=8;hachureAngle=45;fillColor=#e1d5e7;sketch=1;fontSize=12;strokeColor=#9673a6;align=center;" vertex="1" parent="WIyWlLk6GJQsqaUBKTNV-1">
          <mxGeometry x="1180" y="405" width="180" height="65" as="geometry" />
        </mxCell>
        <mxCell id="7G4FsNkI0GNlZ8F1-dTX-30" value="If hit missed no points" style="rounded=1;whiteSpace=wrap;html=1;strokeWidth=2;fillWeight=4;hachureGap=8;hachureAngle=45;fillColor=#e1d5e7;sketch=1;fontSize=12;strokeColor=#9673a6;" vertex="1" parent="WIyWlLk6GJQsqaUBKTNV-1">
          <mxGeometry x="1330" y="310" width="160" height="60" as="geometry" />
        </mxCell>
      </root>
    </mxGraphModel>
  </diagram>
</mxfile>
